<svg xmlns="http://www.w3.org/2000/svg" xmlns:xlink="http://www.w3.org/1999/xlink" width="23" height="20" viewBox="0 0 23 20">
    <defs>
        <path id="a" d="M7.167 4.206V.06H.014v4.146h7.153z"/>
        <path id="c" d="M0 4.056V.06h6.271v3.996z"/>
    </defs>
    <g fill="none" fill-rule="evenodd">
        <path d="M-6-7h35v35H-6z"/>
        <path fill="#F01516" d="M13.355 13.302l-3.81.042a.685.685 0 0 0-.673.674l-.106 5.286h5.417l-.13-5.33a.685.685 0 0 0-.698-.672M17.757 0H4.777C3.93 0 3.117.36 2.544.984L.242 3.502h21.87L20.07 1.076A3.018 3.018 0 0 0 17.757 0M7.248 4.486l-.01.056a3.39 3.39 0 0 0 3.317 3.949h.013l.498.017h.025a3.366 3.366 0 0 0 2.69-1.327 3.362 3.362 0 0 0 .64-2.695H7.249z"/>
        <g transform="translate(15.464 4.426)">
            <mask id="b" fill="#fff">
                <use xlink:href="#a"/>
            </mask>
            <path fill="#F01516" d="M.014.06l.508 1.894A3.041 3.041 0 0 0 3.425 4.2l.706.006a2.993 2.993 0 0 0 2.49-1.303 2.994 2.994 0 0 0 .35-2.79L6.951.06H.014z" mask="url(#b)"/>
        </g>
        <g transform="translate(0 4.426)">
            <mask id="d" fill="#fff">
                <use xlink:href="#c"/>
            </mask>
            <path fill="#F01516" d="M.544 2.75A2.998 2.998 0 0 0 3.01 4.057h.027a3.023 3.023 0 0 0 2.991-2.534L6.271.06H.161a2.994 2.994 0 0 0 .383 2.69" mask="url(#d)"/>
        </g>
        <path fill="#F01516" d="M22.221 16.554l-.557-7.512c-.616.37-1.33.574-2.068.574h-.038l-.678-.006a4.03 4.03 0 0 1-3.775-2.75 4.393 4.393 0 0 1-.543.92 4.342 4.342 0 0 1-3.47 1.713h-.054l-.499-.018a4.372 4.372 0 0 1-3.842-2.368 4 4 0 0 1-3.66 2.36h-.036a4.004 4.004 0 0 1-1.893-.488L.53 16.69c-.11 1.443 1.038 2.614 2.564 2.614h4.495l.116-5.644c.015-.808.673-1.478 1.47-1.492l4.568-.059h.027c.79 0 1.44.65 1.459 1.463l.139 5.732h4.299c1.526 0 2.67-1.23 2.554-2.75"/>
    </g>
</svg>
